<?xml version="1.0" encoding="UTF-8" standalone="no"?><!DOCTYPE svg PUBLIC "-//W3C//DTD SVG 1.1//EN" "http://www.w3.org/Graphics/SVG/1.1/DTD/svg11.dtd"><svg width="100%" height="100%" viewBox="0 0 317 73" version="1.1" xmlns="http://www.w3.org/2000/svg" xmlns:xlink="http://www.w3.org/1999/xlink" xml:space="preserve" xmlns:serif="http://www.serif.com/" style="fill-rule:evenodd;clip-rule:evenodd;stroke-linejoin:round;stroke-miterlimit:2;"><g><g><path d="M89.1,-0l-45.262,-0l0,68.32l45.262,-0l0,-68.32Zm-1.708,1.423l0,65.189l-41.846,-0l0,-65.189l41.846,0Z" style="fill:#fff;"/><path d="M47.744,3.423l37.276,-0l-36.163,1.151l-1.027,60.827l-0.086,-61.978Z" style="fill:#45ff2f;"/><path d="M62.911,22.204l-62.911,-0l0,46.116l62.911,-0l-0,-46.116Zm-1.708,1.423l-0,42.985l-59.495,-0l-0,-42.985l59.495,0Z" style="fill:#fff;"/><path d="M3.776,72.295l62.911,0l-0,-46.116l-1.512,44.758l-61.399,1.358Z" style="fill:#45ff2f;"/></g><g><path d="M141.194,47.539l-32.737,-0l-7.401,19.927l-2.562,-0l25.05,-66.612l3.132,-0l25.05,66.612l-2.562,-0l-7.97,-19.927Zm-31.883,-2.562l30.744,0l-15.372,-41.276l-15.372,41.276Z" style="fill:#fff;fill-rule:nonzero;"/><path d="M175.638,60.918l1.423,3.986l1.424,-3.986l22.488,-60.064l2.562,-0l-24.766,66.612l-3.131,-0l-24.766,-66.612l2.562,-0c-0.284,-0 22.204,60.064 22.204,60.064Z" style="fill:#fff;fill-rule:nonzero;"/><path d="M227.162,32.452l-10.817,9.678l0,25.336l-2.562,-0l0,-66.612l2.562,-0l0,38.43l11.102,-10.818l27.612,-27.897l3.701,0l-29.89,30.175l31.883,36.722l-3.132,-0l-30.459,-35.014Z" style="fill:#fff;fill-rule:nonzero;"/><path d="M313.416,51.524c-0,-2.846 -0.57,-5.124 -1.993,-7.116c-1.423,-1.993 -3.416,-3.701 -6.263,-5.124c-2.846,-1.424 -7.116,-3.132 -12.809,-4.555c-5.694,-1.708 -9.964,-3.131 -13.095,-4.839c-2.847,-1.708 -5.124,-3.416 -6.263,-5.694c-1.138,-2.277 -1.992,-4.839 -1.992,-7.685c-0,-4.84 1.992,-8.825 6.262,-11.672c3.986,-3.131 9.394,-4.554 15.942,-4.554c4.269,-0 7.97,0.854 11.386,2.562c3.416,1.708 5.978,3.985 7.971,7.116c1.992,3.132 2.846,6.263 2.846,10.248l-2.562,0c0,-4.839 -1.708,-9.109 -5.408,-12.24c-3.701,-3.132 -8.54,-4.84 -14.233,-4.84c-5.978,0 -10.533,1.424 -14.234,3.986c-3.7,2.562 -5.408,5.978 -5.408,9.678c-0,3.986 1.708,7.117 4.839,9.679c3.131,2.562 8.255,4.554 15.657,6.547c7.116,1.993 12.525,3.985 15.941,6.547c4.27,3.132 6.262,7.402 6.262,12.526c0,3.416 -0.854,6.262 -2.846,8.824c-1.993,2.562 -4.555,4.555 -7.971,5.978c-3.416,1.424 -7.401,1.993 -11.671,1.993c-4.839,-0 -9.109,-0.854 -13.095,-2.277c-3.7,-1.708 -6.832,-3.986 -8.54,-6.832c-1.992,-2.847 -2.846,-6.548 -2.846,-10.533l2.562,-0c-0,5.409 1.992,9.679 6.262,12.81c3.986,3.131 9.394,4.555 15.942,4.555c5.693,-0 10.532,-1.424 14.517,-3.986c2.847,-3.416 4.84,-6.832 4.84,-11.102Z" style="fill:#fff;fill-rule:nonzero;"/></g></g></svg>